<svg width="181" height="53" viewBox="0 0 181 53" fill="none" xmlns="http://www.w3.org/2000/svg">
<rect y="3.58618" width="48.622" height="45.8276" rx="8.80829" fill="url(#paint0_linear_526_903)"/>
<rect x="24.4961" y="7.05908" width="26.0475" height="26.0475" rx="4.0716" transform="rotate(45 24.4961 7.05908)" fill="#9B84E0"/>
<rect x="24.4963" y="10.1863" width="25.3086" height="25.3086" rx="3.70215" transform="rotate(45 24.4963 10.1863)" fill="#BAABEA" stroke="white" stroke-width="0.738894"/>
<rect x="24.4963" y="9.48877" width="24.3177" height="24.3177" rx="4.0716" transform="rotate(45 24.4963 9.48877)" fill="white"/>
<path d="M24.2131 20.4248C24.2875 20.1899 24.6202 20.1899 24.6946 20.4248L25.8547 24.0908C26.0282 24.6389 26.458 25.0687 27.0061 25.2422L30.6731 26.4023C30.9076 26.4768 30.9075 26.8092 30.6731 26.8838L27.0061 28.0439C26.458 28.2174 26.0282 28.6473 25.8547 29.1953L24.6946 32.8623C24.62 33.0967 24.2876 33.0968 24.2131 32.8623L23.053 29.1953C22.8795 28.6473 22.4497 28.2174 21.9016 28.0439L18.2356 26.8838C18.0007 26.8094 18.0007 26.4767 18.2356 26.4023L21.9016 25.2422C22.4497 25.0687 22.8795 24.6389 23.053 24.0908L24.2131 20.4248Z" stroke="#876DDA" stroke-width="1.51383"/>
<path d="M29.1978 19.5281L29.0667 19.8823C28.8948 20.3468 28.8089 20.5791 28.6394 20.7485C28.47 20.918 28.2377 21.0039 27.7732 21.1758L27.4189 21.3069L27.7732 21.438C28.2377 21.6099 28.47 21.6958 28.6394 21.8652C28.8089 22.0347 28.8948 22.2669 29.0667 22.7315L29.1978 23.0857L29.3289 22.7315C29.5007 22.2669 29.5867 22.0347 29.7561 21.8652C29.9255 21.6958 30.1578 21.6099 30.6223 21.438L30.9766 21.3069L30.6223 21.1758C30.1578 21.0039 29.9255 20.918 29.7561 20.7485C29.5867 20.5791 29.5007 20.3468 29.3289 19.8823L29.1978 19.5281Z" fill="#876DDA" stroke="#876DDA" stroke-width="1.0179" stroke-linejoin="round"/>
<path d="M20.1165 30.4961C20.079 30.3947 19.9355 30.3947 19.898 30.4961C19.7548 30.8832 19.6832 31.0768 19.5419 31.218C19.4008 31.3592 19.2072 31.4308 18.8201 31.574C18.7187 31.6116 18.7187 31.755 18.8201 31.7925C19.2072 31.9357 19.4008 32.0074 19.5419 32.1486C19.6832 32.2898 19.7548 32.4833 19.898 32.8704C19.9355 32.9718 20.079 32.9718 20.1165 32.8704C20.2597 32.4833 20.3313 32.2898 20.4726 32.1486C20.6137 32.0074 20.8073 31.9357 21.1944 31.7925C21.2958 31.755 21.2958 31.6116 21.1944 31.574C20.8073 31.4308 20.6137 31.3592 20.4726 31.218C20.3313 31.0768 20.2597 30.8832 20.1165 30.4961Z" fill="#876DDA"/>
<path d="M29.6036 33.4636C29.566 33.565 29.4226 33.565 29.3851 33.4636C29.2418 33.0765 29.1702 32.8829 29.029 32.7417C28.8878 32.6005 28.6943 32.5289 28.3072 32.3857C28.2058 32.3482 28.2058 32.2047 28.3072 32.1672C28.6943 32.024 28.8878 31.9523 29.029 31.8112C29.1702 31.67 29.2418 31.4764 29.3851 31.0893C29.4226 30.9879 29.566 30.9879 29.6036 31.0893C29.7468 31.4764 29.8184 31.67 29.9596 31.8112C30.1008 31.9523 30.2943 32.024 30.6814 32.1672C30.7828 32.2047 30.7828 32.3482 30.6814 32.3857C30.2943 32.5289 30.1008 32.6005 29.9596 32.7417C29.8184 32.8829 29.7468 33.0765 29.6036 33.4636Z" fill="#876DDA" stroke="#876DDA" stroke-width="0.678599" stroke-linejoin="round"/>
<path d="M65.317 34V12.0843H56.6221V5H82.4197V12.0843H73.4377V34H65.317Z" fill="#876DDA"/>
<path d="M80.4515 34L91.8943 5H98.4565L109.817 34H101.738L96.816 20.5357C96.5425 19.79 96.2964 19.0995 96.0777 18.4643C95.859 17.829 95.6539 17.2076 95.4625 16.6C95.2711 15.9924 95.0797 15.371 94.8883 14.7357C94.7243 14.1005 94.5739 13.41 94.4372 12.6643L95.7496 12.6229C95.5855 13.4238 95.4078 14.1419 95.2164 14.7771C95.0524 15.4124 94.8746 16.02 94.6832 16.6C94.4918 17.18 94.2731 17.7876 94.027 18.4229C93.8083 19.0581 93.5622 19.7624 93.2888 20.5357L88.3671 34H80.4515ZM86.0293 29.1943L88.4492 23.3943H101.738L103.993 29.1943H86.0293Z" fill="#876DDA"/>
<path d="M112.024 34V5H124.738C126.624 5 128.306 5.4281 129.782 6.28429C131.286 7.11286 132.462 8.25905 133.31 9.72286C134.185 11.1867 134.622 12.8714 134.622 14.7771C134.622 16.7381 134.185 18.4919 133.31 20.0386C132.462 21.5576 131.286 22.759 129.782 23.6429C128.306 24.5267 126.624 24.9686 124.738 24.9686H120.144V34H112.024ZM120.021 17.8843H123.343C123.917 17.8843 124.423 17.7738 124.861 17.5529C125.298 17.3043 125.64 16.959 125.886 16.5171C126.16 16.0752 126.296 15.5367 126.296 14.9014C126.296 14.2662 126.16 13.7414 125.886 13.3271C125.64 12.9129 125.298 12.609 124.861 12.4157C124.423 12.1948 123.917 12.0843 123.343 12.0843H120.021V17.8843Z" fill="#876DDA"/>
<path d="M58.9321 48V42.04H56.9721V41H62.0321V42.04H60.0121V48H58.9321ZM64.5577 48.1C64.0177 48.1 63.5377 47.9867 63.1177 47.76C62.7044 47.5267 62.3777 47.21 62.1377 46.81C61.9044 46.41 61.7877 45.95 61.7877 45.43C61.7877 45.0167 61.8544 44.64 61.9877 44.3C62.121 43.96 62.3044 43.6667 62.5377 43.42C62.7777 43.1667 63.061 42.9733 63.3877 42.84C63.721 42.7 64.081 42.63 64.4677 42.63C64.8077 42.63 65.1244 42.6967 65.4177 42.83C65.711 42.9567 65.9644 43.1333 66.1777 43.36C66.3977 43.5867 66.5644 43.8567 66.6777 44.17C66.7977 44.4767 66.8544 44.8133 66.8477 45.18L66.8377 45.62H62.5477L62.3177 44.8H65.9477L65.7977 44.97V44.73C65.7777 44.51 65.7044 44.3133 65.5777 44.14C65.451 43.9667 65.291 43.83 65.0977 43.73C64.9044 43.63 64.6944 43.58 64.4677 43.58C64.1077 43.58 63.8044 43.65 63.5577 43.79C63.311 43.9233 63.1244 44.1233 62.9977 44.39C62.871 44.65 62.8077 44.9733 62.8077 45.36C62.8077 45.7267 62.8844 46.0467 63.0377 46.32C63.191 46.5867 63.4077 46.7933 63.6877 46.94C63.9677 47.0867 64.291 47.16 64.6577 47.16C64.9177 47.16 65.1577 47.1167 65.3777 47.03C65.6044 46.9433 65.8477 46.7867 66.1077 46.56L66.6277 47.29C66.4677 47.45 66.271 47.59 66.0377 47.71C65.811 47.83 65.5677 47.9267 65.3077 48C65.0544 48.0667 64.8044 48.1 64.5577 48.1ZM69.7171 48.1C69.2771 48.1 68.8804 48.0233 68.5271 47.87C68.1737 47.7167 67.8804 47.49 67.6471 47.19L68.3471 46.59C68.5471 46.8233 68.7637 46.9933 68.9971 47.1C69.2371 47.2 69.5071 47.25 69.8071 47.25C69.9271 47.25 70.0371 47.2367 70.1371 47.21C70.2437 47.1767 70.3337 47.13 70.4071 47.07C70.4871 47.01 70.5471 46.94 70.5871 46.86C70.6271 46.7733 70.6471 46.68 70.6471 46.58C70.6471 46.4067 70.5837 46.2667 70.4571 46.16C70.3904 46.1133 70.2837 46.0633 70.1371 46.01C69.9971 45.95 69.8137 45.89 69.5871 45.83C69.2004 45.73 68.8837 45.6167 68.6371 45.49C68.3904 45.3633 68.2004 45.22 68.0671 45.06C67.9671 44.9333 67.8937 44.7967 67.8471 44.65C67.8004 44.4967 67.7771 44.33 67.7771 44.15C67.7771 43.93 67.8237 43.73 67.9171 43.55C68.0171 43.3633 68.1504 43.2033 68.3171 43.07C68.4904 42.93 68.6904 42.8233 68.9171 42.75C69.1504 42.6767 69.3971 42.64 69.6571 42.64C69.9037 42.64 70.1471 42.6733 70.3871 42.74C70.6337 42.8067 70.8604 42.9033 71.0671 43.03C71.2737 43.1567 71.4471 43.3067 71.5871 43.48L70.9971 44.13C70.8704 44.0033 70.7304 43.8933 70.5771 43.8C70.4304 43.7 70.2804 43.6233 70.1271 43.57C69.9737 43.5167 69.8337 43.49 69.7071 43.49C69.5671 43.49 69.4404 43.5033 69.3271 43.53C69.2137 43.5567 69.1171 43.5967 69.0371 43.65C68.9637 43.7033 68.9071 43.77 68.8671 43.85C68.8271 43.93 68.8071 44.02 68.8071 44.12C68.8137 44.2067 68.8337 44.29 68.8671 44.37C68.9071 44.4433 68.9604 44.5067 69.0271 44.56C69.1004 44.6133 69.2104 44.67 69.3571 44.73C69.5037 44.79 69.6904 44.8467 69.9171 44.9C70.2504 44.9867 70.5237 45.0833 70.7371 45.19C70.9571 45.29 71.1304 45.4067 71.2571 45.54C71.3904 45.6667 71.4837 45.8133 71.5371 45.98C71.5904 46.1467 71.6171 46.3333 71.6171 46.54C71.6171 46.84 71.5304 47.11 71.3571 47.35C71.1904 47.5833 70.9637 47.7667 70.6771 47.9C70.3904 48.0333 70.0704 48.1 69.7171 48.1ZM73.4022 48V41.41H74.4322V48H73.4022ZM72.3122 43.75V42.75H75.6522V43.75H72.3122ZM78.9229 48L81.6329 41H82.7329L85.4229 48H84.2729L82.6729 43.78C82.6529 43.7333 82.6129 43.62 82.5529 43.44C82.4995 43.26 82.4362 43.06 82.3629 42.84C82.2895 42.62 82.2229 42.42 82.1629 42.24C82.1029 42.0533 82.0629 41.9333 82.0429 41.88L82.2729 41.87C82.2329 41.9833 82.1829 42.1267 82.1229 42.3C82.0695 42.4733 82.0095 42.6567 81.9429 42.85C81.8829 43.0433 81.8229 43.2267 81.7629 43.4C81.7029 43.5667 81.6529 43.7067 81.6129 43.82L80.0229 48H78.9229ZM80.1229 46.26L80.5229 45.22H83.7029L84.1629 46.26H80.1229ZM88.1371 48.1C87.7638 48.1 87.4371 48.0133 87.1571 47.84C86.8838 47.6667 86.6705 47.4233 86.5171 47.11C86.3705 46.7967 86.2971 46.4233 86.2971 45.99V42.75H87.3271V45.71C87.3271 46.0167 87.3738 46.2833 87.4671 46.51C87.5671 46.73 87.7071 46.9 87.8871 47.02C88.0738 47.14 88.2971 47.2 88.5571 47.2C88.7505 47.2 88.9271 47.17 89.0871 47.11C89.2471 47.0433 89.3838 46.9533 89.4971 46.84C89.6171 46.7267 89.7105 46.59 89.7771 46.43C89.8438 46.27 89.8771 46.0967 89.8771 45.91V42.75H90.9071V48H89.8771V46.9L90.0571 46.78C89.9771 47.0267 89.8405 47.25 89.6471 47.45C89.4605 47.65 89.2371 47.81 88.9771 47.93C88.7171 48.0433 88.4371 48.1 88.1371 48.1ZM93.0018 48V41.41H94.0318V48H93.0018ZM91.9118 43.75V42.75H95.2518V43.75H91.9118ZM98.5009 48.1C97.9876 48.1 97.5276 47.9833 97.1209 47.75C96.7209 47.51 96.4042 47.1867 96.1709 46.78C95.9376 46.3667 95.8209 45.8967 95.8209 45.37C95.8209 44.8433 95.9376 44.3767 96.1709 43.97C96.4042 43.5567 96.7209 43.2333 97.1209 43C97.5276 42.76 97.9876 42.64 98.5009 42.64C99.0076 42.64 99.4609 42.76 99.8609 43C100.268 43.2333 100.588 43.5567 100.821 43.97C101.054 44.3767 101.171 44.8433 101.171 45.37C101.171 45.8967 101.054 46.3667 100.821 46.78C100.588 47.1867 100.268 47.51 99.8609 47.75C99.4609 47.9833 99.0076 48.1 98.5009 48.1ZM98.5009 47.16C98.8142 47.16 99.0942 47.0833 99.3409 46.93C99.5876 46.77 99.7809 46.5567 99.9209 46.29C100.061 46.0167 100.128 45.71 100.121 45.37C100.128 45.0233 100.061 44.7167 99.9209 44.45C99.7809 44.1767 99.5876 43.9633 99.3409 43.81C99.0942 43.6567 98.8142 43.58 98.5009 43.58C98.1876 43.58 97.9042 43.66 97.6509 43.82C97.4042 43.9733 97.2109 44.1867 97.0709 44.46C96.9309 44.7267 96.8642 45.03 96.8709 45.37C96.8642 45.71 96.9309 46.0167 97.0709 46.29C97.2109 46.5567 97.4042 46.77 97.6509 46.93C97.9042 47.0833 98.1876 47.16 98.5009 47.16ZM102.273 48V42.75H103.313V43.87L103.123 43.99C103.177 43.8167 103.26 43.65 103.373 43.49C103.493 43.33 103.637 43.19 103.803 43.07C103.977 42.9433 104.16 42.8433 104.353 42.77C104.553 42.6967 104.757 42.66 104.963 42.66C105.263 42.66 105.527 42.71 105.753 42.81C105.98 42.91 106.167 43.06 106.313 43.26C106.46 43.46 106.567 43.71 106.633 44.01L106.473 43.97L106.543 43.8C106.617 43.6467 106.717 43.5033 106.843 43.37C106.977 43.23 107.127 43.1067 107.293 43C107.46 42.8933 107.637 42.81 107.823 42.75C108.01 42.69 108.193 42.66 108.373 42.66C108.767 42.66 109.09 42.74 109.343 42.9C109.603 43.06 109.797 43.3033 109.923 43.63C110.057 43.9567 110.123 44.3633 110.123 44.85V48H109.083V44.91C109.083 44.61 109.043 44.3667 108.963 44.18C108.89 43.9867 108.777 43.8433 108.623 43.75C108.47 43.6567 108.273 43.61 108.033 43.61C107.847 43.61 107.67 43.6433 107.503 43.71C107.343 43.77 107.203 43.8567 107.083 43.97C106.963 44.0833 106.87 44.2167 106.803 44.37C106.737 44.5167 106.703 44.68 106.703 44.86V48H105.663V44.89C105.663 44.6167 105.623 44.3867 105.543 44.2C105.463 44.0067 105.347 43.86 105.193 43.76C105.04 43.66 104.853 43.61 104.633 43.61C104.447 43.61 104.273 43.6433 104.113 43.71C103.953 43.77 103.813 43.8567 103.693 43.97C103.573 44.0767 103.48 44.2067 103.413 44.36C103.347 44.5067 103.313 44.6667 103.313 44.84V48H102.273ZM113.522 48.1C113.089 48.1 112.692 47.98 112.332 47.74C111.979 47.5 111.696 47.1733 111.482 46.76C111.269 46.3467 111.162 45.88 111.162 45.36C111.162 44.8333 111.269 44.3667 111.482 43.96C111.702 43.5467 111.996 43.2233 112.362 42.99C112.736 42.7567 113.152 42.64 113.612 42.64C113.886 42.64 114.136 42.68 114.362 42.76C114.589 42.84 114.786 42.9533 114.952 43.1C115.126 43.24 115.266 43.4033 115.372 43.59C115.486 43.7767 115.556 43.9767 115.582 44.19L115.352 44.11V42.75H116.392V48H115.352V46.75L115.592 46.68C115.552 46.86 115.469 47.0367 115.342 47.21C115.222 47.3767 115.066 47.5267 114.872 47.66C114.686 47.7933 114.476 47.9 114.242 47.98C114.016 48.06 113.776 48.1 113.522 48.1ZM113.792 47.15C114.106 47.15 114.382 47.0733 114.622 46.92C114.862 46.7667 115.049 46.5567 115.182 46.29C115.322 46.0167 115.392 45.7067 115.392 45.36C115.392 45.02 115.322 44.7167 115.182 44.45C115.049 44.1833 114.862 43.9733 114.622 43.82C114.382 43.6667 114.106 43.59 113.792 43.59C113.486 43.59 113.212 43.6667 112.972 43.82C112.739 43.9733 112.552 44.1833 112.412 44.45C112.279 44.7167 112.212 45.02 112.212 45.36C112.212 45.7067 112.279 46.0167 112.412 46.29C112.552 46.5567 112.739 46.7667 112.972 46.92C113.212 47.0733 113.486 47.15 113.792 47.15ZM118.48 48V41.41H119.51V48H118.48ZM117.39 43.75V42.75H120.73V43.75H117.39ZM121.838 48V42.75H122.868V48H121.838ZM122.338 41.59C122.118 41.59 121.948 41.5333 121.828 41.42C121.708 41.3067 121.648 41.1467 121.648 40.94C121.648 40.7467 121.708 40.59 121.828 40.47C121.955 40.35 122.125 40.29 122.338 40.29C122.558 40.29 122.728 40.3467 122.848 40.46C122.968 40.5733 123.028 40.7333 123.028 40.94C123.028 41.1333 122.965 41.29 122.838 41.41C122.718 41.53 122.552 41.59 122.338 41.59ZM126.811 48.1C126.298 48.1 125.838 47.9833 125.431 47.75C125.031 47.51 124.715 47.1867 124.481 46.78C124.248 46.3667 124.131 45.8967 124.131 45.37C124.131 44.8433 124.248 44.3767 124.481 43.97C124.715 43.5567 125.031 43.2333 125.431 43C125.838 42.76 126.298 42.64 126.811 42.64C127.318 42.64 127.771 42.76 128.171 43C128.578 43.2333 128.898 43.5567 129.131 43.97C129.365 44.3767 129.481 44.8433 129.481 45.37C129.481 45.8967 129.365 46.3667 129.131 46.78C128.898 47.1867 128.578 47.51 128.171 47.75C127.771 47.9833 127.318 48.1 126.811 48.1ZM126.811 47.16C127.125 47.16 127.405 47.0833 127.651 46.93C127.898 46.77 128.091 46.5567 128.231 46.29C128.371 46.0167 128.438 45.71 128.431 45.37C128.438 45.0233 128.371 44.7167 128.231 44.45C128.091 44.1767 127.898 43.9633 127.651 43.81C127.405 43.6567 127.125 43.58 126.811 43.58C126.498 43.58 126.215 43.66 125.961 43.82C125.715 43.9733 125.521 44.1867 125.381 44.46C125.241 44.7267 125.175 45.03 125.181 45.37C125.175 45.71 125.241 46.0167 125.381 46.29C125.521 46.5567 125.715 46.77 125.961 46.93C126.215 47.0833 126.498 47.16 126.811 47.16ZM130.604 48V42.75H131.634V43.83L131.454 43.95C131.52 43.7167 131.65 43.5033 131.844 43.31C132.037 43.11 132.267 42.95 132.534 42.83C132.8 42.7033 133.074 42.64 133.354 42.64C133.754 42.64 134.087 42.72 134.354 42.88C134.62 43.0333 134.82 43.27 134.954 43.59C135.087 43.91 135.154 44.3133 135.154 44.8V48H134.124V44.87C134.124 44.57 134.084 44.3233 134.004 44.13C133.924 43.93 133.8 43.7867 133.634 43.7C133.467 43.6067 133.26 43.5667 133.014 43.58C132.814 43.58 132.63 43.6133 132.464 43.68C132.297 43.74 132.15 43.8267 132.024 43.94C131.904 44.0533 131.807 44.1867 131.734 44.34C131.667 44.4867 131.634 44.6467 131.634 44.82V48H131.124C131.037 48 130.95 48 130.864 48C130.777 48 130.69 48 130.604 48ZM139.614 48V41H142.464C142.844 41 143.187 41.0967 143.494 41.29C143.807 41.4767 144.057 41.7333 144.244 42.06C144.43 42.3867 144.524 42.75 144.524 43.15C144.524 43.55 144.43 43.9133 144.244 44.24C144.057 44.5667 143.807 44.83 143.494 45.03C143.187 45.2233 142.844 45.32 142.464 45.32H140.694V48H139.614ZM140.694 44.28H142.444C142.624 44.28 142.787 44.23 142.934 44.13C143.08 44.0233 143.197 43.8867 143.284 43.72C143.377 43.5467 143.424 43.3567 143.424 43.15C143.424 42.9433 143.377 42.7567 143.284 42.59C143.197 42.4233 143.08 42.29 142.934 42.19C142.787 42.09 142.624 42.04 142.444 42.04H140.694V44.28ZM145.712 48V40.6H146.742V48H145.712ZM150.124 48.1C149.69 48.1 149.294 47.98 148.934 47.74C148.58 47.5 148.297 47.1733 148.084 46.76C147.87 46.3467 147.764 45.88 147.764 45.36C147.764 44.8333 147.87 44.3667 148.084 43.96C148.304 43.5467 148.597 43.2233 148.964 42.99C149.337 42.7567 149.754 42.64 150.214 42.64C150.487 42.64 150.737 42.68 150.964 42.76C151.19 42.84 151.387 42.9533 151.554 43.1C151.727 43.24 151.867 43.4033 151.974 43.59C152.087 43.7767 152.157 43.9767 152.184 44.19L151.954 44.11V42.75H152.994V48H151.954V46.75L152.194 46.68C152.154 46.86 152.07 47.0367 151.944 47.21C151.824 47.3767 151.667 47.5267 151.474 47.66C151.287 47.7933 151.077 47.9 150.844 47.98C150.617 48.06 150.377 48.1 150.124 48.1ZM150.394 47.15C150.707 47.15 150.984 47.0733 151.224 46.92C151.464 46.7667 151.65 46.5567 151.784 46.29C151.924 46.0167 151.994 45.7067 151.994 45.36C151.994 45.02 151.924 44.7167 151.784 44.45C151.65 44.1833 151.464 43.9733 151.224 43.82C150.984 43.6667 150.707 43.59 150.394 43.59C150.087 43.59 149.814 43.6667 149.574 43.82C149.34 43.9733 149.154 44.1833 149.014 44.45C148.88 44.7167 148.814 45.02 148.814 45.36C148.814 45.7067 148.88 46.0167 149.014 46.29C149.154 46.5567 149.34 46.7667 149.574 46.92C149.814 47.0733 150.087 47.15 150.394 47.15ZM155.082 48V41.41H156.112V48H155.082ZM153.992 43.75V42.75H157.332V43.75H153.992ZM158.586 48V42.16C158.586 41.86 158.653 41.5933 158.786 41.36C158.919 41.1267 159.103 40.9433 159.336 40.81C159.569 40.6767 159.839 40.61 160.146 40.61C160.359 40.61 160.559 40.65 160.746 40.73C160.933 40.81 161.083 40.9167 161.196 41.05L160.846 41.84C160.759 41.76 160.663 41.6967 160.556 41.65C160.456 41.5967 160.359 41.57 160.266 41.57C160.126 41.57 160.006 41.5933 159.906 41.64C159.813 41.68 159.743 41.7467 159.696 41.84C159.649 41.9267 159.626 42.0333 159.626 42.16V48H159.106C159.019 48 158.933 48 158.846 48C158.759 48 158.673 48 158.586 48ZM157.746 43.79V42.84H160.866V43.79H157.746ZM164.106 48.1C163.593 48.1 163.133 47.9833 162.726 47.75C162.326 47.51 162.01 47.1867 161.776 46.78C161.543 46.3667 161.426 45.8967 161.426 45.37C161.426 44.8433 161.543 44.3767 161.776 43.97C162.01 43.5567 162.326 43.2333 162.726 43C163.133 42.76 163.593 42.64 164.106 42.64C164.613 42.64 165.066 42.76 165.466 43C165.873 43.2333 166.193 43.5567 166.426 43.97C166.66 44.3767 166.776 44.8433 166.776 45.37C166.776 45.8967 166.66 46.3667 166.426 46.78C166.193 47.1867 165.873 47.51 165.466 47.75C165.066 47.9833 164.613 48.1 164.106 48.1ZM164.106 47.16C164.42 47.16 164.7 47.0833 164.946 46.93C165.193 46.77 165.386 46.5567 165.526 46.29C165.666 46.0167 165.733 45.71 165.726 45.37C165.733 45.0233 165.666 44.7167 165.526 44.45C165.386 44.1767 165.193 43.9633 164.946 43.81C164.7 43.6567 164.42 43.58 164.106 43.58C163.793 43.58 163.51 43.66 163.256 43.82C163.01 43.9733 162.816 44.1867 162.676 44.46C162.536 44.7267 162.47 45.03 162.476 45.37C162.47 45.71 162.536 46.0167 162.676 46.29C162.816 46.5567 163.01 46.77 163.256 46.93C163.51 47.0833 163.793 47.16 164.106 47.16ZM167.899 48V42.75H168.939V44.4L168.839 44C168.912 43.7467 169.035 43.5167 169.209 43.31C169.389 43.1033 169.592 42.94 169.819 42.82C170.052 42.7 170.292 42.64 170.539 42.64C170.652 42.64 170.759 42.65 170.859 42.67C170.965 42.69 171.049 42.7133 171.109 42.74L170.839 43.86C170.759 43.8267 170.669 43.8 170.569 43.78C170.475 43.7533 170.382 43.74 170.289 43.74C170.109 43.74 169.935 43.7767 169.769 43.85C169.609 43.9167 169.465 44.0133 169.339 44.14C169.219 44.26 169.122 44.4033 169.049 44.57C168.975 44.73 168.939 44.9067 168.939 45.1V48H167.899ZM171.912 48V42.75H172.952V43.87L172.762 43.99C172.815 43.8167 172.899 43.65 173.012 43.49C173.132 43.33 173.275 43.19 173.442 43.07C173.615 42.9433 173.799 42.8433 173.992 42.77C174.192 42.6967 174.395 42.66 174.602 42.66C174.902 42.66 175.165 42.71 175.392 42.81C175.619 42.91 175.805 43.06 175.952 43.26C176.099 43.46 176.205 43.71 176.272 44.01L176.112 43.97L176.182 43.8C176.255 43.6467 176.355 43.5033 176.482 43.37C176.615 43.23 176.765 43.1067 176.932 43C177.099 42.8933 177.275 42.81 177.462 42.75C177.649 42.69 177.832 42.66 178.012 42.66C178.405 42.66 178.729 42.74 178.982 42.9C179.242 43.06 179.435 43.3033 179.562 43.63C179.695 43.9567 179.762 44.3633 179.762 44.85V48H178.722V44.91C178.722 44.61 178.682 44.3667 178.602 44.18C178.529 43.9867 178.415 43.8433 178.262 43.75C178.109 43.6567 177.912 43.61 177.672 43.61C177.485 43.61 177.309 43.6433 177.142 43.71C176.982 43.77 176.842 43.8567 176.722 43.97C176.602 44.0833 176.509 44.2167 176.442 44.37C176.375 44.5167 176.342 44.68 176.342 44.86V48H175.302V44.89C175.302 44.6167 175.262 44.3867 175.182 44.2C175.102 44.0067 174.985 43.86 174.832 43.76C174.679 43.66 174.492 43.61 174.272 43.61C174.085 43.61 173.912 43.6433 173.752 43.71C173.592 43.77 173.452 43.8567 173.332 43.97C173.212 44.0767 173.119 44.2067 173.052 44.36C172.985 44.5067 172.952 44.6667 172.952 44.84V48H171.912Z" fill="#876DDA"/>
<defs>
<linearGradient id="paint0_linear_526_903" x1="24.311" y1="3.58618" x2="24.311" y2="49.4138" gradientUnits="userSpaceOnUse">
<stop stop-color="#876DDA"/>
<stop offset="1" stop-color="#6948D1"/>
</linearGradient>
</defs>
</svg>
